<?xml version="1.0" standalone="no"?>
<!DOCTYPE svg PUBLIC "-//W3C//DTD SVG 20010904//EN"
 "http://www.w3.org/TR/2001/REC-SVG-20010904/DTD/svg10.dtd">
<svg version="1.0" xmlns="http://www.w3.org/2000/svg"
 width="48.000000pt" height="48.000000pt" viewBox="0 0 48.000000 48.000000"
 preserveAspectRatio="xMidYMid meet">

<g transform="translate(0.000000,48.000000) scale(0.100000,-0.100000)"
fill="#000000" stroke="none">
<path d="M39 441 l-39 -39 0 -162 0 -162 39 -39 39 -39 157 0 c238 0 245 7
245 245 l0 157 -39 39 -39 39 -162 0 -162 0 -39 -39z m121 -166 c10 -12 10
-22 2 -39 -7 -17 -7 -27 1 -35 18 -18 -14 -13 -35 6 -17 15 -18 15 -18 0 0
-10 -7 -17 -15 -17 -11 0 -15 12 -15 50 l0 50 34 0 c18 0 39 -7 46 -15z m118
-4 c3 -9 -1 -11 -14 -7 -26 8 -47 -7 -42 -30 3 -14 11 -18 32 -17 35 2 30 -21
-6 -25 -29 -4 -58 20 -58 48 0 42 76 69 88 31z m123 -21 c10 -45 -4 -60 -52
-60 l-39 0 0 51 0 50 42 -3 c39 -3 43 -5 49 -38z"/>
<path d="M110 256 c0 -9 7 -16 16 -16 9 0 14 5 12 12 -6 18 -28 21 -28 4z"/>
<path d="M340 260 c0 -5 7 -10 15 -10 8 0 15 5 15 10 0 6 -7 10 -15 10 -8 0
-15 -4 -15 -10z"/>
<path d="M340 220 c0 -5 9 -10 20 -10 11 0 20 5 20 10 0 6 -9 10 -20 10 -11 0
-20 -4 -20 -10z"/>
</g>
</svg>
